<?xml version="1.0" standalone="no"?>
<!DOCTYPE svg PUBLIC "-//W3C//DTD SVG 1.1//EN" "http://www.w3.org/Graphics/SVG/1.1/DTD/svg11.dtd" >
<svg xmlns="http://www.w3.org/2000/svg">
<metadata></metadata>
<defs>
<font id="unit-regularregular" horiz-adv-x="1314" >
<font-face units-per-em="2048" ascent="1638" descent="-410" />
<missing-glyph horiz-adv-x="495" />
<glyph horiz-adv-x="2048" />
<glyph horiz-adv-x="2048" />
<glyph unicode="&#xd;" horiz-adv-x="2048" />
<glyph unicode=" "  horiz-adv-x="495" />
<glyph unicode="&#x09;" horiz-adv-x="495" />
<glyph unicode="&#xa0;" horiz-adv-x="495" />
<glyph unicode="!" horiz-adv-x="573" d="M152 119q0 58 39 97.5t96 39.5q58 0 96.5 -39t38.5 -98t-38.5 -98t-96.5 -39q-57 0 -96 39.5t-39 97.5zM172 1411h221l-43 -981h-135z" />
<glyph unicode="&#x22;" horiz-adv-x="851" d="M168 928v524h166v-524h-166zM516 928v524h166v-524h-166z" />
<glyph unicode="#" horiz-adv-x="1138" d="M90 362v152h199l43 297h-185v152h207l49 340h142l-49 -340h237l49 340h142l-50 -340h173v-152h-195l-43 -297h180v-152h-203l-53 -362h-141l53 362h-237l-54 -362h-141l53 362h-176zM430 514h238l43 297h-238z" />
<glyph unicode="$" horiz-adv-x="1040" d="M82 119l82 123q82 -58 149.5 -86.5t149.5 -32.5v487q-83 33 -138 63.5t-100 74t-65.5 102t-20.5 135.5q0 157 83 244t237 98v277h125v-279q150 -13 274 -100l-76 -131q-104 70 -202 82v-418q63 -25 108.5 -47.5t91.5 -57.5t74.5 -75.5t46 -98.5t17.5 -129 q0 -157 -79.5 -256t-254.5 -117v-245h-125v243q-107 6 -205.5 44t-171.5 100zM315 995q0 -79 31.5 -118t116.5 -74v373q-148 -17 -148 -181zM580 129q86 13 121.5 63.5t35.5 147.5q0 96 -34 141t-123 82v-434z" />
<glyph unicode="%" horiz-adv-x="1712" d="M115 973q0 161 85.5 256.5t227.5 95.5q141 0 228 -97.5t87 -258.5t-85.5 -256t-227.5 -95q-141 0 -228 97t-87 258zM283 981q0 -130 35 -181.5t112 -51.5q74 0 109.5 52t35.5 161q0 131 -34.5 183t-112.5 52q-75 0 -110 -52.5t-35 -162.5zM383 0l786 1303h158l-786 -1303 h-158zM967 332q0 161 85.5 256.5t227.5 95.5q141 0 228 -97.5t87 -258.5t-85.5 -256t-227.5 -95q-141 0 -228 97t-87 258zM1135 340q0 -130 35 -182t112 -52q74 0 109.5 52t35.5 161q0 131 -35 183.5t-112 52.5q-75 0 -110 -52.5t-35 -162.5z" />
<glyph unicode="&#x26;" horiz-adv-x="1359" d="M111 389q0 149 71.5 247t227.5 169l-15 18q-75 92 -110 160t-35 150q0 140 93.5 222.5t252.5 82.5q155 0 249.5 -84t94.5 -238q0 -110 -69 -188.5t-207 -149.5l294 -354q43 130 64 307l170 -18q-36 -276 -113 -434l234 -279h-238l-102 121q-142 -148 -385 -148 q-238 0 -357.5 114.5t-119.5 301.5zM311 393q0 -133 64 -203.5t219 -70.5q171 0 274 131l-374 450q-183 -92 -183 -307zM436 1139q0 -52 25.5 -99.5t70.5 -101.5l48 -57q95 61 130 110t35 123q0 182 -147 182q-77 0 -119.5 -41.5t-42.5 -115.5z" />
<glyph unicode="'" horiz-adv-x="503" d="M168 928v524h166v-524h-166z" />
<glyph unicode="(" horiz-adv-x="722" d="M125 621q0 386 114 621t343 345l59 -108q-166 -106 -241.5 -303t-75.5 -551q0 -241 36 -406t103.5 -265.5t177.5 -170.5l-57 -109q-459 222 -459 947z" />
<glyph unicode=")" horiz-adv-x="722" d="M80 -217q110 70 177.5 170.5t103.5 265.5t36 406q0 354 -75.5 551t-241.5 303l59 108q229 -110 343 -345t114 -621q0 -725 -459 -947z" />
<glyph unicode="*" horiz-adv-x="989" d="M115 1081l43 127l268 -106v309h137v-307l268 100l43 -127l-278 -96l178 -258l-110 -76l-168 256l-168 -256l-111 74l176 262z" />
<glyph unicode="+" horiz-adv-x="1124" d="M150 522v154h329v362h166v-362h328v-154h-328v-362h-166v362h-329z" />
<glyph unicode="," horiz-adv-x="567" d="M143 125q0 61 38 100t93 39q67 0 109.5 -51.5t42.5 -138.5q0 -127 -59.5 -220t-190.5 -128l-33 96q56 22 91 63t34 99q-43 4 -84 40.5t-41 100.5z" />
<glyph unicode="-" horiz-adv-x="616" d="M109 461v186h395v-186h-395z" />
<glyph unicode="." horiz-adv-x="567" d="M143 123q0 60 40.5 100.5t99.5 40.5q60 0 99.5 -40.5t39.5 -100.5t-39.5 -100.5t-99.5 -40.5q-59 0 -99.5 40.5t-40.5 100.5z" />
<glyph unicode="/" horiz-adv-x="776" d="M68 -305l477 1864h162l-478 -1864h-161z" />
<glyph unicode="0" horiz-adv-x="1269" d="M127 647q0 329 133.5 505.5t372.5 176.5q246 0 377 -169.5t131 -502.5q0 -340 -128.5 -511t-375.5 -171q-248 0 -379 168.5t-131 503.5zM324 655q0 -279 72.5 -406.5t238.5 -127.5t237.5 124t71.5 400q0 280 -72 407.5t-237 127.5q-166 0 -238.5 -125.5t-72.5 -399.5z " />
<glyph unicode="1" horiz-adv-x="933" d="M104 1049l357 268h139v-1165h229v-152h-675v152h262v923l-258 -123z" />
<glyph unicode="2" horiz-adv-x="1030" d="M98 1204q97 64 191 94.5t203 30.5q85 0 155.5 -22.5t125.5 -67t85.5 -118.5t30.5 -171q0 -126 -50.5 -235t-173.5 -238.5t-354 -318.5h600v-158h-809v168q192 164 306.5 274t180 199.5t86.5 155t21 147.5q0 118 -55 174t-164 56q-90 0 -162.5 -26t-146.5 -73z" />
<glyph unicode="3" horiz-adv-x="1056" d="M88 -76l33 146q184 -45 305 -45q165 0 234 65.5t69 224.5q0 151 -71.5 205.5t-241.5 54.5h-76v146h98q139 0 197.5 58.5t58.5 183.5q0 103 -53.5 154.5t-167.5 51.5q-159 0 -311 -79l-62 133q184 106 396 106q179 0 284 -97.5t105 -248.5q0 -250 -199 -332 q115 -33 179.5 -127.5t64.5 -216.5q0 -442 -496 -442q-188 0 -346 59z" />
<glyph unicode="4" horiz-adv-x="1167" d="M104 205v174l410 924h193l-424 -941h448v543l184 35v-578h154v-157h-154v-314h-184v314h-627z" />
<glyph unicode="5" horiz-adv-x="1058" d="M88 -78l33 144q153 -46 280 -46q173 0 257.5 85.5t84.5 244.5q0 156 -78.5 222.5t-238.5 66.5q-129 0 -254 -39l61 703h658v-160h-508l-31 -365q52 10 113 10q214 0 343.5 -110.5t129.5 -315.5q0 -235 -142.5 -366t-400.5 -131q-145 0 -307 57z" />
<glyph unicode="6" horiz-adv-x="1177" d="M129 565q0 201 47 352.5t141.5 255.5t227 168t313.5 99l37 -137q-105 -28 -178 -55t-141.5 -68t-112.5 -93.5t-76.5 -127.5t-48.5 -173q129 119 299 119q179 0 297.5 -124.5t118.5 -331.5q0 -149 -60.5 -258t-162.5 -163.5t-232 -54.5q-209 0 -339 157.5t-130 434.5z M322 547q0 -225 68.5 -326.5t207.5 -101.5q127 0 193.5 85.5t66.5 239.5q0 149 -67.5 232.5t-188.5 83.5q-155 0 -278 -107q-2 -35 -2 -106z" />
<glyph unicode="7" horiz-adv-x="1036" d="M94 1143v160h821v-168q-187 -214 -322 -547.5t-157 -718.5l-192 25q21 219 73.5 419.5t124.5 355t144.5 268.5t152.5 206h-645z" />
<glyph unicode="8" horiz-adv-x="1163" d="M125 367q0 95 35 167t92 118t147 87q-118 62 -168.5 153t-50.5 189q0 165 107.5 261t298.5 96q185 0 293 -95.5t108 -248.5q0 -113 -57.5 -195t-192.5 -149q162 -67 230.5 -163t68.5 -233q0 -180 -119.5 -280.5t-330.5 -100.5q-218 0 -339.5 108.5t-121.5 285.5zM311 373 q0 -137 70.5 -198.5t206.5 -61.5q125 0 191.5 58.5t66.5 162.5q0 101 -42 166t-153 112l-141 60q-101 -52 -150 -121t-49 -178zM367 1087q0 -93 40 -146.5t160 -104.5l47 -21q112 61 149.5 123t37.5 154q0 101 -56 153.5t-165 52.5q-106 0 -159.5 -55t-53.5 -156z" />
<glyph unicode="9" horiz-adv-x="1177" d="M125 854q0 112 35.5 202.5t97.5 149.5t145 91t179 32q213 0 340 -150t127 -431q0 -202 -46.5 -353.5t-142.5 -257t-233 -171.5t-328 -103l-37 137q102 26 176 53.5t144 68t116.5 92.5t82 125.5t53.5 168.5q-127 -111 -287 -111q-187 0 -304.5 127t-117.5 330zM319 858 q0 -315 248 -315q163 0 285 106q4 74 4 117q0 225 -71 321.5t-207 96.5q-130 0 -194.5 -85t-64.5 -241z" />
<glyph unicode=":" horiz-adv-x="612" d="M166 123q0 60 40 100.5t99 40.5q60 0 99.5 -40.5t39.5 -100.5t-39.5 -100.5t-99.5 -40.5q-59 0 -99 40.5t-40 100.5zM166 752q0 60 40 100.5t99 40.5q60 0 99.5 -40.5t39.5 -100.5t-39.5 -101t-99.5 -41q-59 0 -99 41t-40 101z" />
<glyph unicode=";" horiz-adv-x="612" d="M166 125q0 61 38 100t93 39q67 0 109.5 -51.5t42.5 -138.5q0 -127 -59.5 -220t-190.5 -128l-33 96q56 22 91 63t34 99q-43 4 -84 40.5t-41 100.5zM166 752q0 60 40 100.5t99 40.5q60 0 99.5 -40.5t39.5 -100.5t-39.5 -101t-99.5 -41q-59 0 -99 41t-40 101z" />
<glyph unicode="&#x3c;" horiz-adv-x="780" d="M117 553v90l461 408l102 -107l-387 -344l387 -344l-102 -111z" />
<glyph unicode="=" horiz-adv-x="1128" d="M152 317v154h823v-154h-823zM152 727v154h823v-154h-823z" />
<glyph unicode="&#x3e;" horiz-adv-x="780" d="M98 252l387 344l-387 344l103 111l461 -408v-90l-461 -408z" />
<glyph unicode="?" horiz-adv-x="901" d="M98 1319q158 115 338 115q156 0 246 -76.5t90 -231.5q0 -35 -3 -64.5t-11.5 -55t-15.5 -45t-23.5 -40t-26 -32.5t-32.5 -31t-33.5 -27.5t-38.5 -28.5t-39 -28q-47 -35 -64.5 -75.5t-17.5 -100.5v-168h-154v184q0 100 35 164.5t109 118.5q70 51 90 74q45 53 45 151 q0 83 -38 118.5t-132 35.5q-118 0 -250 -90zM258 119q0 58 39 97.5t96 39.5q58 0 96.5 -39t38.5 -98t-38.5 -98t-96.5 -39q-57 0 -96 39.5t-39 97.5z" />
<glyph unicode="@" horiz-adv-x="1712" d="M119 408q0 187 53 346.5t153 278t254 186t345 67.5q329 0 499 -191t170 -522q0 -593 -364 -593q-122 0 -185.5 57t-76.5 156q-69 -82 -143 -132.5t-162 -50.5q-53 0 -94.5 29t-68.5 90.5t-28.5 156.5t25.5 228q47 221 137 322.5t237 101.5q63 0 117.5 -29.5t89.5 -64.5 l15 71h168l-125 -583q-23 -107 3 -160t83 -53q107 0 155.5 108.5t48.5 345.5q0 146 -26 250.5t-84.5 179t-156 110.5t-238.5 36q-161 0 -283.5 -56t-197.5 -157.5t-112.5 -234t-37.5 -293.5q0 -318 115.5 -460.5t390.5 -142.5q148 0 284 48l39 -127q-159 -58 -321 -58 q-339 0 -508.5 189.5t-169.5 550.5zM642 227q10 -75 71 -75q58 0 116.5 38.5t126.5 104.5l97 442q-82 74 -162 74q-88 0 -134.5 -67.5t-84.5 -247.5q-40 -194 -30 -269z" />
<glyph unicode="A" horiz-adv-x="1185" d="M57 0l437 1413h208l424 -1413h-206l-115 410h-436l-119 -410h-193zM416 569h344l-68 244q-68 243 -98 408h-4q-25 -143 -103 -408z" />
<glyph unicode="B" horiz-adv-x="1175" d="M180 0v1411h416q212 0 308.5 -100t96.5 -277q0 -114 -37 -178t-135 -106q109 -31 172.5 -118.5t63.5 -236.5q0 -202 -120 -298.5t-327 -96.5h-438zM367 813h233q119 0 161 50t42 167q0 116 -46.5 169.5t-166.5 53.5h-223v-440zM369 158h229q145 0 205.5 58.5t60.5 189.5 t-57.5 189t-200.5 58h-237v-495z" />
<glyph unicode="C" horiz-adv-x="1132" d="M133 700q0 738 547 738q208 0 338 -111l-90 -137q-116 88 -248 88q-81 0 -139.5 -22.5t-97.5 -65t-61.5 -113t-32 -158.5t-9.5 -210q0 -124 9 -212.5t32 -160.5t62.5 -115t99.5 -65.5t143 -22.5q131 0 264 105l90 -140q-163 -125 -360 -125q-281 0 -414 183t-133 544z " />
<glyph unicode="D" horiz-adv-x="1236" d="M180 0v1411h361q148 0 250 -36t173.5 -119.5t104.5 -220.5t33 -339q0 -163 -21.5 -281.5t-63 -198.5t-110 -128t-154 -68t-202.5 -20h-371zM369 162h186q104 0 169 26.5t105 93t55 166t15 257.5q0 128 -9 214.5t-31 154t-61.5 105t-97 56t-141.5 18.5h-190v-1091z" />
<glyph unicode="E" horiz-adv-x="1069" d="M201 0v1411h723v-162h-535v-430h432v-162h-432v-493h561v-164h-749z" />
<glyph unicode="F" horiz-adv-x="1011" d="M201 0v1411h702v-162h-514v-428h418v-162h-418v-659h-188z" />
<glyph unicode="G" horiz-adv-x="1269" d="M133 700q0 174 32 309t97 231.5t168 147t240 50.5q225 0 377 -135l-93 -138q-75 60 -136.5 84.5t-143.5 24.5q-97 0 -161.5 -32.5t-103 -104.5t-54 -174t-15.5 -254q0 -305 69.5 -443.5t239.5 -138.5q143 0 264 111v352h-264v162h449v-752h-140l-24 102q-60 -57 -138 -93 t-161 -36q-245 0 -373.5 185t-128.5 542z" />
<glyph unicode="H" horiz-adv-x="1286" d="M201 0v1411h188v-577h508v577h188v-1411h-188v668h-508v-668h-188z" />
<glyph unicode="I" horiz-adv-x="741" d="M133 0v104l143 17v1169l-143 19v102h475v-102l-143 -19v-1169l143 -17v-104h-475z" />
<glyph unicode="J" horiz-adv-x="602" d="M23 -174q84 50 111 75q64 62 74 189q3 32 3 70v1251h190v-1237q0 -91 -12.5 -157t-34.5 -113t-63.5 -84t-88 -63t-120.5 -56z" />
<glyph unicode="K" horiz-adv-x="1128" d="M201 0v1411h188v-1411h-188zM399 766l451 645h207l-447 -635l463 -776h-211z" />
<glyph unicode="L" horiz-adv-x="968" d="M201 0v1411h188v-1247h481v-164h-669z" />
<glyph unicode="M" horiz-adv-x="1554" d="M201 0v1411h278l228 -711q53 -160 65 -313h4q20 179 66 313l231 711h281v-1411h-189v834q0 82 2 161.5t4 125t4.5 92.5t2.5 55h-4q-9 -48 -43 -178t-70 -234l-207 -594h-174l-201 569q-20 57 -41 133.5t-32.5 128t-23.5 113.5l-13 62h-4q10 -235 10 -437v-831h-174z" />
<glyph unicode="N" horiz-adv-x="1277" d="M201 0v1411h190l393 -803q84 -181 138 -348h4q-23 216 -23 402v749h174v-1411h-196l-361 737q-92 188 -160 391h-4q19 -190 19 -421v-707h-174z" />
<glyph unicode="O" d="M133 700q0 358 133.5 548t388.5 190t390 -186.5t135 -540.5q0 -738 -521 -738q-526 0 -526 727zM336 709q0 -302 74.5 -444t246.5 -142t246 138t74 437q0 302 -74.5 444t-245.5 142q-172 0 -246.5 -138.5t-74.5 -436.5z" />
<glyph unicode="P" horiz-adv-x="1144" d="M201 0v1411h413q213 0 321.5 -108.5t108.5 -313.5q0 -211 -100.5 -323.5t-306.5 -112.5h-248v-553h-188zM389 713h223q122 0 178 60t56 206q0 149 -55.5 209.5t-186.5 60.5h-215v-536z" />
<glyph unicode="Q" d="M133 700q0 358 133.5 548t388.5 190t390 -186.5t135 -540.5q0 -297 -82 -469.5t-252 -227.5l393 -100l-59 -176l-684 250q-180 64 -271.5 234t-91.5 478zM336 709q0 -302 74.5 -444t246.5 -142t246 138t74 437q0 302 -74.5 444t-245.5 142q-172 0 -246.5 -138.5 t-74.5 -436.5z" />
<glyph unicode="R" horiz-adv-x="1167" d="M201 0v1411h393q206 0 321 -99t115 -294q0 -159 -65.5 -248.5t-202.5 -126.5q56 -21 98.5 -76t79.5 -161l145 -406h-206l-142 397q-43 123 -91 165t-124 42h-133v-604h-188zM389 758h197q137 0 192.5 61t55.5 197q0 125 -55.5 179t-192.5 54h-197v-491z" />
<glyph unicode="S" horiz-adv-x="1085" d="M92 117l82 137q88 -66 158.5 -92.5t169.5 -26.5q136 0 197 59.5t61 172.5q0 51 -12.5 90t-31.5 65.5t-56.5 51t-72.5 40.5t-95 39q-124 48 -194 97.5t-108 128t-38 194.5q0 179 104.5 272t292.5 93q110 0 189 -24.5t151 -74.5l-78 -147q-64 44 -121.5 64t-130.5 20 q-221 0 -221 -197q0 -103 45.5 -150.5t179.5 -99.5q64 -24 106 -43.5t91.5 -48t81 -60.5t59 -75t40.5 -99.5t13 -125.5q0 -66 -13 -123t-45 -109.5t-81 -90t-125.5 -59.5t-173.5 -22q-123 0 -235 39t-189 105z" />
<glyph unicode="T" horiz-adv-x="1021" d="M82 1247v164h856v-164h-334v-1247h-188v1247h-334z" />
<glyph unicode="U" horiz-adv-x="1298" d="M193 406v1005h188v-973q0 -164 44.5 -232.5t172.5 -68.5q173 0 309 131v1143h189v-1411h-140l-32 131q-158 -158 -346 -158q-78 0 -144 22.5t-121.5 70.5t-87.5 135t-32 205z" />
<glyph unicode="V" horiz-adv-x="1159" d="M66 1411h206l234 -829q50 -180 78 -324h4q6 23 32.5 130t51.5 196l229 827h193l-420 -1411h-189z" />
<glyph unicode="W" horiz-adv-x="1656" d="M74 1411h202l142 -717q57 -292 78 -504h4q42 303 80 486l151 735h215l152 -739q49 -244 71 -482h5q28 218 86 517l137 704h186l-305 -1411h-229l-144 700q-51 251 -71 465h-5q-46 -331 -71 -456l-150 -709h-231z" />
<glyph unicode="X" horiz-adv-x="1126" d="M55 0l396 762l-332 649h215l229 -489l242 489h205l-340 -635l401 -776h-215l-297 616l-299 -616h-205z" />
<glyph unicode="Y" horiz-adv-x="1097" d="M55 1411h219l197 -457q55 -128 82 -221q5 13 31 92.5t47 126.5l205 459h204l-399 -846v-565h-188v569z" />
<glyph unicode="Z" horiz-adv-x="1011" d="M88 0v143l598 1104h-557v164h778v-149l-594 -1098h592v-164h-817z" />
<glyph unicode="[" horiz-adv-x="655" d="M180 -317v1818h375v-137h-199v-1544h199v-137h-375z" />
<glyph unicode="\" horiz-adv-x="780" d="M70 1559h161l478 -1864h-162z" />
<glyph unicode="]" horiz-adv-x="655" d="M98 -180h199v1544h-199v137h375v-1818h-375v137z" />
<glyph unicode="^" horiz-adv-x="1019" d="M131 901l293 549h170l293 -549h-174l-203 375l-203 -375h-176z" />
<glyph unicode="_" horiz-adv-x="698" d="M16 -123h666v-153h-666v153z" />
<glyph unicode="`" horiz-adv-x="1116" d="M260 1364l94 172l391 -272l-63 -109z" />
<glyph unicode="a" horiz-adv-x="1015" d="M109 293q0 177 112 259.5t361 82.5h84v80q0 49 -4.5 78.5t-19.5 56t-45 38t-79 11.5q-126 0 -299 -94l-67 135q91 53 181.5 83t203.5 30q154 0 229.5 -74t75.5 -236v-743h-137l-29 102q-115 -129 -258 -129q-149 0 -229 81.5t-80 238.5zM297 293q0 -99 33.5 -139.5 t109.5 -40.5q116 0 226 123v272h-62q-77 0 -131 -8.5t-88.5 -24t-54 -42.5t-26.5 -59.5t-7 -80.5z" />
<glyph unicode="b" horiz-adv-x="1105" d="M180 0v1483h176v-563q126 133 275 133q62 0 112.5 -14.5t95.5 -51.5t75.5 -96.5t48.5 -153.5t18 -217q0 -286 -85.5 -416.5t-266.5 -130.5q-82 0 -159.5 36t-123.5 89l-29 -98h-137zM356 225q104 -100 228 -100q47 0 78 8t58 31.5t42 66t23 110.5t8 167 q0 164 -20.5 249.5t-59.5 114.5t-113 29q-69 0 -125 -30.5t-119 -90.5v-555z" />
<glyph unicode="c" horiz-adv-x="905" d="M111 514q0 283 105 411t304 128q90 0 158 -27t133 -90l-102 -123q-48 48 -90.5 69t-104.5 21t-100 -15.5t-65.5 -58.5t-38.5 -118.5t-11 -196.5q0 -157 24 -242t71.5 -117t133.5 -32q57 0 97 22.5t92 71.5l108 -117q-118 -127 -307 -127q-407 0 -407 541z" />
<glyph unicode="d" horiz-adv-x="1107" d="M125 506q0 286 85.5 416.5t266.5 130.5q142 0 273 -125v555h176v-1483h-138l-28 106q-121 -133 -285 -133q-62 0 -112.5 14.5t-95.5 51.5t-75.5 96.5t-48.5 153.5t-18 217zM313 518q0 -164 20.5 -249.5t59.5 -114.5t113 -29q71 0 128 27.5t116 83.5v555 q-114 110 -228 110q-47 0 -78 -8t-58 -31.5t-42 -66t-23 -110.5t-8 -167z" />
<glyph unicode="e" horiz-adv-x="1007" d="M111 514q0 539 401 539q190 0 286.5 -120t96.5 -390v-70h-596q2 -141 26.5 -216.5t72.5 -104.5t137 -29q75 0 127 23.5t114 72.5l96 -127q-77 -63 -154.5 -91t-187.5 -28q-207 0 -313 129.5t-106 411.5zM301 606h408q0 175 -44.5 241t-156.5 66q-63 0 -104 -24.5 t-68.5 -94t-34.5 -188.5z" />
<glyph unicode="f" horiz-adv-x="624" d="M72 883v143h112v164q0 305 273 305q130 0 213 -55l-62 -133q-60 32 -127 32q-64 0 -92.5 -34.5t-28.5 -112.5v-166h193v-143h-193v-883h-176v883h-112z" />
<glyph unicode="g" horiz-adv-x="1032" d="M96 -123q0 134 137 217q-77 47 -77 144q0 124 112 213q-131 86 -131 270q0 160 98.5 246t268.5 86q84 0 160 -27h301v-106l-138 -37q39 -76 39 -168q0 -160 -94.5 -242t-265.5 -82q-72 0 -131 15q-26 -27 -43 -62t-17 -63q0 -54 72 -54h176q176 0 272.5 -75.5 t96.5 -225.5q0 -161 -104 -247.5t-316 -86.5q-416 0 -416 285zM272 -106q0 -43 9 -70.5t34 -49.5t72.5 -32t122.5 -10q124 0 183 45t59 143q0 77 -45.5 108t-131.5 31h-223q-80 -60 -80 -165zM319 715q0 -102 45.5 -146.5t137.5 -44.5t137 46.5t45 148.5q0 106 -43 149 t-141 43q-92 0 -136.5 -45.5t-44.5 -150.5z" />
<glyph unicode="h" horiz-adv-x="1079" d="M180 0v1483h176v-572q74 69 145.5 105.5t155.5 36.5q115 0 181.5 -62t66.5 -188v-803h-176v748q0 86 -27.5 117.5t-97.5 31.5q-110 0 -248 -123v-774h-176z" />
<glyph unicode="i" horiz-adv-x="602" d="M86 913v113h328v-1026h-176v889zM201 1341q0 54 35.5 90.5t87.5 36.5q54 0 89.5 -36t35.5 -91q0 -53 -36 -88.5t-91 -35.5q-52 0 -86.5 35.5t-34.5 88.5z" />
<glyph unicode="j" horiz-adv-x="602" d="M84 -301q95 61 124.5 125t29.5 201v864l-152 24v113h328v-1003q0 -86 -9.5 -147.5t-26.5 -105t-51 -78.5t-71 -59.5t-98 -54.5zM201 1341q0 54 35.5 90.5t87.5 36.5q54 0 89.5 -36t35.5 -91q0 -53 -36 -88.5t-91 -35.5q-52 0 -86.5 35.5t-34.5 88.5z" />
<glyph unicode="k" horiz-adv-x="993" d="M180 0v1483h176v-1483h-176zM379 584l332 442h198l-336 -436l390 -590h-207z" />
<glyph unicode="l" horiz-adv-x="569" d="M184 229v1254h176v-1286q0 -38 17.5 -55t54.5 -17l41 4l25 -127q-57 -22 -127 -22q-99 0 -143 57.5t-44 191.5z" />
<glyph unicode="m" horiz-adv-x="1570" d="M180 0v1026h137l27 -127q75 75 145.5 114.5t151.5 39.5q163 0 217 -146q163 146 303 146q108 0 172 -62.5t64 -187.5v-803h-176v748q0 87 -24.5 118t-88.5 31q-95 0 -231 -115v-782h-177v748q0 87 -24 118t-88 31q-94 0 -232 -123v-774h-176z" />
<glyph unicode="n" horiz-adv-x="1079" d="M180 0v1026h137l27 -127q154 154 313 154q115 0 181.5 -62t66.5 -188v-803h-176v748q0 86 -27.5 117.5t-97.5 31.5q-110 0 -248 -123v-774h-176z" />
<glyph unicode="o" horiz-adv-x="1060" d="M111 514q0 278 109 408.5t306 130.5q198 0 310 -131t112 -408q0 -278 -110.5 -409.5t-307.5 -131.5t-308 131.5t-111 409.5zM299 514q0 -155 26 -244t74.5 -123t130.5 -34t130 33.5t74 122t26 243.5q0 156 -26.5 245t-75 122.5t-130.5 33.5t-130 -33t-73.5 -121.5 t-25.5 -244.5z" />
<glyph unicode="p" horiz-adv-x="1105" d="M180 -412v1438h137l29 -117q131 144 285 144q62 0 112.5 -14.5t95.5 -51.5t75.5 -96.5t48.5 -153.5t18 -217q0 -286 -85.5 -416.5t-266.5 -130.5q-153 0 -273 115v-500h-176zM356 225q104 -100 228 -100q47 0 78 8t58 31.5t42 66t23 110.5t8 167q0 164 -20.5 249.5 t-59.5 114.5t-113 29q-69 0 -125 -30.5t-119 -90.5v-555z" />
<glyph unicode="q" horiz-adv-x="1107" d="M125 506q0 286 85.5 416.5t266.5 130.5q80 0 157.5 -39.5t125.5 -95.5l28 108h138v-1438h-176v508q-117 -123 -275 -123q-62 0 -112.5 14.5t-95.5 51.5t-75.5 96.5t-48.5 153.5t-18 217zM313 518q0 -164 20.5 -249.5t59.5 -114.5t113 -29q71 0 128 27.5t116 83.5v555 q-114 110 -228 110q-47 0 -78 -8t-58 -31.5t-42 -66t-23 -110.5t-8 -167z" />
<glyph unicode="r" horiz-adv-x="733" d="M180 0v1026h137l29 -145q132 163 289 163q25 0 37 -6l-21 -188q-24 8 -61 8q-68 0 -121.5 -24.5t-112.5 -79.5v-754h-176z" />
<glyph unicode="s" horiz-adv-x="888" d="M76 84l74 131q137 -94 274 -94q100 0 141 37.5t41 113.5q0 82 -42.5 114.5t-174.5 68.5q-58 16 -102 38t-82 58t-58 92t-20 129q0 121 81 201t241 80q164 0 284 -68l-61 -139q-65 32 -112 44.5t-105 12.5q-83 0 -122.5 -30.5t-39.5 -96.5q0 -36 8 -59.5t31.5 -42 t55.5 -30.5t89 -28q55 -15 93 -29.5t80.5 -40.5t68 -59.5t42.5 -86t17 -119.5q0 -158 -89.5 -233t-272.5 -75q-97 0 -189 32.5t-151 78.5z" />
<glyph unicode="t" horiz-adv-x="679" d="M80 883v143h117v264l176 39v-303h211v-143h-211v-674q0 -49 20.5 -71.5t63.5 -22.5q13 0 25.5 1.5t25.5 5t20.5 6t21.5 8t19 7.5l35 -131q-80 -39 -162 -39q-245 0 -245 220v690h-117z" />
<glyph unicode="u" horiz-adv-x="1085" d="M172 236v790h176v-735q0 -89 31.5 -125.5t101.5 -36.5q109 0 246 123v774h176v-1026h-137l-27 127q-151 -154 -305 -154q-116 0 -189 67.5t-73 195.5z" />
<glyph unicode="v" horiz-adv-x="974" d="M61 1026h193l174 -588q12 -39 64 -266h2q36 185 63 270l174 584h182l-344 -1026h-170z" />
<glyph unicode="w" horiz-adv-x="1427" d="M68 1026h188l125 -526q11 -47 24 -120t20 -122l7 -49h4q24 182 49 272l140 545h184l131 -528q12 -49 26 -121.5t22 -120.5l9 -47h4q34 193 54 283l127 534h178l-270 -1026h-177l-141 547q-11 40 -61 297h-2q-33 -196 -60 -297l-139 -547h-176z" />
<glyph unicode="x" horiz-adv-x="954" d="M53 0l328 565l-283 461h207l84 -156q60 -111 94 -186h4q47 111 86 186l78 156h199l-277 -461l326 -565h-207l-121 231q-47 92 -96 195h-4q-34 -77 -94 -190l-125 -236h-199z" />
<glyph unicode="y" horiz-adv-x="978" d="M61 1026h193l172 -604q29 -105 61 -281h2q36 191 64 281l182 604h183l-340 -1059q-30 -91 -60.5 -153t-61 -102.5t-75 -66.5t-88 -40.5t-113.5 -28.5l-39 143q128 33 184.5 87.5t98.5 193.5h-43z" />
<glyph unicode="z" horiz-adv-x="880" d="M100 0v162l484 721h-439v143h621v-160l-479 -723h495v-143h-682z" />
<glyph unicode="{" horiz-adv-x="768" d="M94 516v160q101 0 139.5 29.5t38.5 121.5v416q0 137 66.5 197.5t177.5 60.5h152v-137h-125q-57 0 -75.5 -29.5t-18.5 -107.5v-420q0 -112 -38.5 -155.5t-111.5 -53.5v-4q73 -10 111.5 -53.5t38.5 -155.5v-428q0 -78 18.5 -107.5t75.5 -29.5h125v-137h-152 q-111 0 -177.5 60.5t-66.5 197.5v424q0 92 -38.5 121.5t-139.5 29.5z" />
<glyph unicode="|" horiz-adv-x="532" d="M203 -305v1864h127v-1864h-127z" />
<glyph unicode="}" horiz-adv-x="768" d="M98 -180h125q57 0 75.5 29.5t18.5 107.5v428q0 112 38.5 155.5t111.5 53.5v4q-73 10 -111.5 53.5t-38.5 155.5v420q0 78 -18.5 107.5t-75.5 29.5h-125v137h152q111 0 177.5 -60.5t66.5 -197.5v-416q0 -92 38.5 -121.5t139.5 -29.5v-160q-101 0 -139.5 -29.5t-38.5 -121.5 v-424q0 -137 -66.5 -197.5t-177.5 -60.5h-152v137z" />
<glyph unicode="~" horiz-adv-x="1062" d="M143 590q97 211 250 211q53 0 105 -22.5t97.5 -45t82.5 -22.5q25 0 47 15t36 32.5t34 48.5q5 8 8 12l115 -67q-96 -211 -250 -211q-53 0 -105 22.5t-97.5 45t-82.5 22.5q-8 0 -16.5 -2t-15 -4t-14 -7.5t-12.5 -9t-12.5 -12t-11 -12.5t-11 -14.5t-10.5 -14.5t-11.5 -16.5 t-10.5 -16.5z" />
<glyph unicode="&#xa1;" horiz-adv-x="577" d="M152 909q0 59 38.5 98.5t96.5 39.5q57 0 96 -40t39 -98t-39 -97.5t-96 -39.5q-58 0 -96.5 39t-38.5 98zM180 -383l43 981h135l43 -981h-221z" />
<glyph unicode="&#xa2;" horiz-adv-x="931" d="M111 514q0 488 352 535v254h125v-252q143 -9 258 -115l-98 -117q-69 74 -164 86v-786q89 12 172 92l104 -111q-55 -60 -119.5 -89.5t-152.5 -35.5v-243h-125v248q-172 22 -262 154.5t-90 379.5zM299 514q0 -196 38 -283.5t130 -107.5v782q-92 -15 -130 -101t-38 -290z " />
<glyph unicode="&#xa3;" horiz-adv-x="1067" d="M127 580v157h121q-41 121 -41 228q0 174 109 269t282 95q108 0 194 -30t185 -95l-70 -129q-78 49 -142 74t-153 25q-219 0 -219 -199q0 -92 43 -238h398v-157h-355q19 -89 19 -146q0 -90 -30.5 -157t-107.5 -119h607v-158h-834v168q106 49 151.5 110.5t45.5 151.5 q0 55 -27 150h-176z" />
<glyph unicode="&#xa4;" horiz-adv-x="1128" d="M61 1063l111 104q139 -139 139 -141q105 88 250 88q147 0 250 -86l135 139l115 -108l-150 -158q52 -104 52 -244t-52 -247l156 -164l-111 -105l-141 144q-106 -86 -250 -86q-142 0 -246 84l-137 -144l-114 111l151 158q-53 106 -53 249q0 142 51 244zM354 657 q0 -173 51 -242t160 -69t159 67.5t50 241.5q0 175 -51 243.5t-160 68.5t-159 -67.5t-50 -242.5z" />
<glyph unicode="&#xa5;" horiz-adv-x="1232" d="M123 1303h213l196 -420q38 -83 86 -232q4 11 17 53.5t19.5 62.5t19.5 53.5t26 60.5l205 422h203l-270 -535h241v-135h-309l-61 -123v-49h370v-135h-370v-326h-189v326h-368v135h368v49l-61 123h-307v135h239z" />
<glyph unicode="&#xa6;" horiz-adv-x="532" d="M203 -305v786h127v-786h-127zM203 772v787h127v-787h-127z" />
<glyph unicode="&#xa7;" horiz-adv-x="1134" d="M119 535q0 200 209 270q-95 79 -95 225q0 134 84.5 216.5t266.5 82.5q103 0 173 -21t142 -63l-65 -133q-72 39 -123 55.5t-121 16.5q-102 0 -144.5 -37t-42.5 -111q0 -31 9.5 -53t22.5 -36.5t46 -29.5t60.5 -24t86.5 -26q11 -3 17 -5q48 -14 76 -23t68.5 -24t64 -29 t53 -34t46 -43t32.5 -52.5t22.5 -67t6.5 -81.5q0 -216 -207 -287q104 -80 104 -239q0 -158 -96 -241t-278 -83q-223 0 -353 113l74 127q65 -51 124.5 -74t158.5 -23q100 0 147 42t47 130q0 29 -8 52.5t-29 42.5t-39.5 31.5t-58.5 27.5t-65 23t-80 24q-86 27 -143.5 55 t-103.5 69.5t-67.5 99.5t-21.5 137zM287 535q0 -75 54.5 -114t197.5 -81q94 -31 123 -41q176 33 176 201q0 25 -5 44.5t-13.5 34.5t-24.5 28t-33 22.5t-45 19.5t-54 18t-66 20q-25 7 -38 11q-37 9 -84 27q-106 -16 -147 -65t-41 -125z" />
<glyph unicode="&#xa8;" horiz-adv-x="1116" d="M231 1284q0 50 36.5 86.5t84.5 36.5t84.5 -36.5t36.5 -86.5t-36.5 -86.5t-84.5 -36.5t-84.5 36.5t-36.5 86.5zM639 1284q0 50 36.5 86.5t84.5 36.5t84.5 -36.5t36.5 -86.5t-36.5 -86.5t-84.5 -36.5t-84.5 36.5t-36.5 86.5z" />
<glyph unicode="&#xa9;" horiz-adv-x="1566" d="M127 727q0 346 179.5 554t475.5 208q295 0 475.5 -208t180.5 -554t-180.5 -554t-475.5 -208q-296 0 -475.5 208t-179.5 554zM246 727q0 -303 143.5 -483.5t392.5 -180.5q248 0 393.5 181t145.5 483q0 303 -145.5 482.5t-393.5 179.5q-249 0 -392.5 -179t-143.5 -483z M438 719q0 105 17 185t47.5 132t75.5 85t97.5 47t117.5 14q166 0 268 -144l-103 -92q-43 56 -80 78.5t-94 22.5q-48 0 -77.5 -11.5t-52.5 -46.5t-32.5 -100.5t-9.5 -171.5q0 -137 21.5 -210.5t59 -97.5t104.5 -24q51 0 88.5 25t77.5 75l106 -86q-55 -74 -120.5 -110.5 t-157.5 -36.5q-170 0 -261.5 114.5t-91.5 352.5z" />
<glyph unicode="&#xaa;" horiz-adv-x="933" d="M121 645q0 159 101 233t325 74h74v68q0 85 -25.5 123.5t-106.5 38.5q-111 0 -268 -86l-61 131q168 102 348 102q140 0 209 -67t69 -215v-668h-129l-26 92q-99 -115 -232 -115q-134 0 -206 73.5t-72 215.5zM297 645q0 -86 30 -122t97 -36q94 0 197 103v244h-52 q-113 0 -172.5 -21t-79.5 -59.5t-20 -108.5z" />
<glyph unicode="&#xab;" horiz-adv-x="1050" d="M115 508l284 455l133 -91l-225 -364l223 -367l-131 -86zM512 508l285 455l133 -91l-225 -364l223 -367l-131 -86z" />
<glyph unicode="&#xac;" horiz-adv-x="1003" d="M152 590v153h682v-440h-166v287h-516z" />
<glyph unicode="&#xad;" horiz-adv-x="616" d="M109 461v186h395v-186h-395z" />
<glyph unicode="&#xae;" horiz-adv-x="1124" d="M102 932q0 242 126.5 388t332.5 146t332.5 -146t126.5 -388t-126.5 -387.5t-332.5 -145.5t-332.5 145.5t-126.5 387.5zM213 932q0 -205 91 -320.5t257 -115.5q165 0 256.5 115.5t91.5 320.5q0 206 -91.5 322t-256.5 116q-166 0 -257 -115.5t-91 -322.5zM379 643v590h180 q201 0 201 -168q0 -69 -25.5 -104.5t-77.5 -49.5q52 -17 76 -104l49 -164h-129l-47 168q-12 43 -27.5 58.5t-41.5 15.5h-39v-242h-119zM498 977h65q41 0 57.5 19t16.5 63q0 74 -74 74h-65v-156z" />
<glyph unicode="&#xaf;" horiz-adv-x="1116" d="M293 1260v151h526v-151h-526z" />
<glyph unicode="&#xb0;" horiz-adv-x="825" d="M92 1079q0 158 87 252t229 94q153 0 238 -93t85 -257q0 -157 -88.5 -250.5t-230.5 -93.5q-150 0 -235 93t-85 255zM242 1087q0 -130 41.5 -184.5t130.5 -54.5q85 0 125.5 54.5t40.5 164.5q0 131 -41.5 186.5t-128.5 55.5q-168 0 -168 -222z" />
<glyph unicode="&#xb1;" horiz-adv-x="1128" d="M152 61v154h823v-154h-823zM152 584v153h329v301h166v-301h328v-153h-328v-281h-166v281h-329z" />
<glyph unicode="&#xb2;" horiz-adv-x="804" d="M106 1245q131 88 279 88q136 0 217.5 -69t81.5 -201q0 -123 -82 -231t-303 -273h401v-133h-585v141q172 141 253.5 221t113.5 139t32 128q0 139 -143 139q-101 0 -207 -68z" />
<glyph unicode="&#xb3;" horiz-adv-x="782" d="M80 377l29 125q122 -31 204 -31q115 0 162 41.5t47 136.5q0 88 -50 121t-161 33h-69v129h82q96 0 138 34t42 107q0 63 -38.5 94t-121.5 31q-94 0 -205 -49l-45 117q131 67 275 67q136 0 217.5 -66t81.5 -175q0 -169 -142 -222q82 -23 126 -85t44 -144q0 -307 -366 -307 q-133 0 -250 43z" />
<glyph unicode="&#xb4;" horiz-adv-x="1116" d="M369 1264l391 272l94 -172l-422 -209z" />
<glyph unicode="&#xb5;" horiz-adv-x="1085" d="M172 -412v1438h176v-735q0 -89 31.5 -125.5t101.5 -36.5q109 0 246 123v774h176v-1026h-137l-27 127q-154 -154 -278 -154q-76 0 -113 37v-422h-176z" />
<glyph unicode="&#xb6;" horiz-adv-x="1177" d="M115 1061q0 169 96 259.5t272 90.5h514v-1589h-159v1442h-174v-1442h-160v889h-21q-174 0 -271 93t-97 257z" />
<glyph unicode="&#xb7;" horiz-adv-x="571" d="M145 684q0 60 40.5 100.5t99.5 40.5q60 0 99.5 -40.5t39.5 -100.5t-39.5 -100.5t-99.5 -40.5q-59 0 -99.5 40.5t-40.5 100.5z" />
<glyph unicode="&#xb8;" horiz-adv-x="1116" d="M395 -389l45 94q67 -31 115 -31q41 0 58.5 16t17.5 50q0 67 -74 67q-38 0 -88 -10l68 203h112l-39 -104q150 -11 150 -166q0 -74 -48.5 -121t-154.5 -47q-93 0 -162 49z" />
<glyph unicode="&#xb9;" horiz-adv-x="739" d="M100 1118l265 203h116v-768h168v-127h-512v127h185v551l-175 -74z" />
<glyph unicode="&#xba;" horiz-adv-x="1005" d="M123 844q0 485 375 485q180 0 281.5 -117.5t101.5 -369.5q0 -250 -100 -368t-279 -118t-279 118.5t-100 369.5zM299 842q0 -136 23 -214t65.5 -108.5t114.5 -30.5q71 0 113.5 30.5t64.5 108.5t22 214q0 139 -22.5 216.5t-64.5 106.5t-115 29q-72 0 -114 -28.5 t-64.5 -106.5t-22.5 -217z" />
<glyph unicode="&#xbb;" horiz-adv-x="1050" d="M119 145l225 365l-223 367l131 86l285 -453l-285 -455zM516 145l225 365l-223 367l131 86l285 -453l-285 -455z" />
<glyph unicode="&#xbc;" horiz-adv-x="1978" d="M100 1118l265 203h116v-768h168v-127h-512v127h185v551l-175 -74zM514 0l786 1303h158l-786 -1303h-158zM1149 133v148l276 608h166l-284 -621h301v350l157 29v-379h101v-135h-101v-207h-157v207h-459z" />
<glyph unicode="&#xbd;" horiz-adv-x="1998" d="M100 1118l265 203h116v-768h168v-127h-512v127h185v551l-175 -74zM516 0l787 1303h157l-786 -1303h-158zM1300 819q131 88 279 88q136 0 217.5 -69t81.5 -201q0 -123 -82 -231t-303 -273h401v-133h-585v141q172 141 253.5 221t113.5 139t32 128q0 139 -143 139 q-101 0 -207 -68z" />
<glyph unicode="&#xbe;" horiz-adv-x="2019" d="M80 377l29 125q122 -31 204 -31q115 0 162 41.5t47 136.5q0 88 -50 121t-161 33h-69v129h82q96 0 138 34t42 107q0 63 -38.5 94t-121.5 31q-94 0 -205 -49l-45 117q131 67 275 67q136 0 217.5 -66t81.5 -175q0 -169 -142 -222q82 -23 126 -85t44 -144q0 -307 -366 -307 q-133 0 -250 43zM557 0l786 1303h158l-786 -1303h-158zM1190 133v148l276 608h166l-284 -621h301v350l157 29v-379h101v-135h-101v-207h-157v207h-459z" />
<glyph unicode="&#xbf;" horiz-adv-x="901" d="M127 -98q0 35 3 64.5t11.5 55t15.5 45t23.5 40t26 32.5t32.5 31t33.5 27.5t38.5 28.5t39 28q47 35 64.5 75.5t17.5 100.5v168h154v-184q0 -100 -35 -164.5t-109 -118.5q-70 -51 -90 -74q-45 -53 -45 -151q0 -83 38 -118.5t132 -35.5q118 0 250 90l74 -133 q-158 -115 -338 -115q-156 0 -246 76.5t-90 231.5zM371 909q0 59 38.5 98.5t96.5 39.5q57 0 96 -40t39 -98t-39 -97.5t-96 -39.5q-58 0 -96.5 39t-38.5 98z" />
<glyph unicode="&#xc0;" horiz-adv-x="1185" d="M57 0l437 1413h208l424 -1413h-206l-115 410h-436l-119 -410h-193zM295 1720l94 172l391 -272l-63 -109zM416 569h344l-68 244q-68 243 -98 408h-4q-25 -143 -103 -408z" />
<glyph unicode="&#xc1;" horiz-adv-x="1185" d="M57 0l437 1413h208l424 -1413h-206l-115 410h-436l-119 -410h-193zM403 1620l392 272l94 -172l-422 -209zM416 569h344l-68 244q-68 243 -98 408h-4q-25 -143 -103 -408z" />
<glyph unicode="&#xc2;" horiz-adv-x="1185" d="M57 0l437 1413h208l424 -1413h-206l-115 410h-436l-119 -410h-193zM279 1616l253 260h119l252 -260l-67 -92l-244 172l-246 -172zM416 569h344l-68 244q-68 243 -98 408h-4q-25 -143 -103 -408z" />
<glyph unicode="&#xc3;" horiz-adv-x="1185" d="M57 0l437 1413h208l424 -1413h-206l-115 410h-436l-119 -410h-193zM270 1610q81 176 211 176q46 0 89 -19.5t81 -39t72 -19.5q22 0 42 13t30 25t34 44l93 -68q-81 -176 -211 -176q-46 0 -89 19.5t-81 39t-72 19.5q-22 0 -42 -12.5t-31 -25.5t-34 -44zM416 569h344 l-68 244q-68 243 -98 408h-4q-25 -143 -103 -408z" />
<glyph unicode="&#xc4;" horiz-adv-x="1185" d="M57 0l437 1413h208l424 -1413h-206l-115 410h-436l-119 -410h-193zM266 1640q0 50 36.5 86.5t84.5 36.5t84.5 -36.5t36.5 -86.5t-36.5 -86t-84.5 -36t-84.5 36t-36.5 86zM416 569h344l-68 244q-68 243 -98 408h-4q-25 -143 -103 -408zM674 1640q0 50 36.5 86.5t84.5 36.5 t84 -36.5t36 -86.5t-36 -86t-84 -36t-84.5 36t-36.5 86z" />
<glyph unicode="&#xc5;" horiz-adv-x="1185" d="M57 0l437 1413h208l424 -1413h-206l-115 410h-436l-119 -410h-193zM391 1700q0 90 56.5 152.5t148.5 62.5t148.5 -62.5t56.5 -152.5t-56.5 -152.5t-148.5 -62.5t-148.5 62.5t-56.5 152.5zM416 569h344l-68 244q-68 243 -98 408h-4q-25 -143 -103 -408zM508 1700 q0 -115 88 -115t88 115t-88 115t-88 -115z" />
<glyph unicode="&#xc6;" horiz-adv-x="1748" d="M49 0l750 1411h805v-162h-535v-430h432v-162h-432v-493h561v-164h-749v375h-441l-192 -375h-199zM522 535h359v389l6 342h-4q-50 -128 -148 -316z" />
<glyph unicode="&#xc7;" horiz-adv-x="1132" d="M133 700q0 738 547 738q208 0 338 -111l-90 -137q-116 88 -248 88q-81 0 -139.5 -22.5t-97.5 -65t-61.5 -113t-32 -158.5t-9.5 -210q0 -124 9 -212.5t32 -160.5t62.5 -115t99.5 -65.5t143 -22.5q131 0 264 105l90 -140q-163 -125 -360 -125h-33l-29 -77q150 -11 150 -166 q0 -74 -48.5 -121t-154.5 -47q-93 0 -162 49l46 94q67 -31 114 -31q41 0 58.5 16t17.5 50q0 67 -74 67q-38 0 -88 -10l64 191q-209 41 -308.5 219.5t-99.5 492.5z" />
<glyph unicode="&#xc8;" horiz-adv-x="1069" d="M201 0v1411h723v-162h-535v-430h432v-162h-432v-493h561v-164h-749zM297 1720l94 172l391 -272l-63 -109z" />
<glyph unicode="&#xc9;" horiz-adv-x="1069" d="M201 0v1411h723v-162h-535v-430h432v-162h-432v-493h561v-164h-749zM344 1620l391 272l94 -172l-421 -209z" />
<glyph unicode="&#xca;" horiz-adv-x="1069" d="M201 0v1411h723v-162h-535v-430h432v-162h-432v-493h561v-164h-749zM246 1616l254 260h118l252 -260l-67 -92l-244 172l-246 -172z" />
<glyph unicode="&#xcb;" horiz-adv-x="1069" d="M201 0v1411h723v-162h-535v-430h432v-162h-432v-493h561v-164h-749zM231 1640q0 50 36.5 86.5t84.5 36.5t84.5 -36.5t36.5 -86.5t-36.5 -86t-84.5 -36t-84.5 36t-36.5 86zM639 1640q0 50 36.5 86.5t84.5 36.5t84.5 -36.5t36.5 -86.5t-36.5 -86t-84.5 -36t-84.5 36 t-36.5 86z" />
<glyph unicode="&#xcc;" horiz-adv-x="741" d="M104 1720l95 172l391 -272l-64 -109zM133 0v104l143 17v1169l-143 19v102h475v-102l-143 -19v-1169l143 -17v-104h-475z" />
<glyph unicode="&#xcd;" horiz-adv-x="741" d="M133 0v104l143 17v1169l-143 19v102h475v-102l-143 -19v-1169l143 -17v-104h-475zM158 1620l391 272l94 -172l-422 -209z" />
<glyph unicode="&#xce;" horiz-adv-x="741" d="M57 1616l254 260h119l252 -260l-68 -92l-243 172l-246 -172zM133 0v104l143 17v1169l-143 19v102h475v-102l-143 -19v-1169l143 -17v-104h-475z" />
<glyph unicode="&#xcf;" horiz-adv-x="741" d="M45 1640q0 50 36.5 86.5t84.5 36.5t84.5 -36.5t36.5 -86.5t-36.5 -86t-84.5 -36t-84.5 36t-36.5 86zM133 0v104l143 17v1169l-143 19v102h475v-102l-143 -19v-1169l143 -17v-104h-475zM453 1640q0 50 36 86.5t84 36.5t84.5 -36.5t36.5 -86.5t-36.5 -86t-84.5 -36t-84 36 t-36 86z" />
<glyph unicode="&#xd0;" horiz-adv-x="1232" d="M51 616v162h127v633h361q148 0 250 -36t173.5 -119.5t104.5 -220.5t33 -339q0 -163 -21.5 -281.5t-63 -198.5t-110 -128t-154 -68t-202.5 -20h-371v616h-127zM367 162h186q104 0 169 26.5t105 93t55 166t15 257.5q0 128 -9 214.5t-31 154t-61.5 105t-97 56t-141.5 18.5 h-190v-475h282v-162h-282v-454z" />
<glyph unicode="&#xd1;" horiz-adv-x="1277" d="M201 0v1411h190l393 -803q84 -181 138 -348h4q-23 216 -23 402v749h174v-1411h-196l-361 737q-92 188 -160 391h-4q19 -190 19 -421v-707h-174zM326 1610q81 176 211 176q46 0 88.5 -19.5t80.5 -39t72 -19.5q22 0 42 12.5t31 25.5t34 44l92 -68q-81 -176 -211 -176 q-46 0 -89 19.5t-81 39t-72 19.5q-22 0 -42 -13t-30 -25t-34 -44z" />
<glyph unicode="&#xd2;" d="M133 700q0 358 133.5 548t388.5 190t390 -186.5t135 -540.5q0 -738 -521 -738q-526 0 -526 727zM336 709q0 -302 74.5 -444t246.5 -142t246 138t74 437q0 302 -74.5 444t-245.5 142q-172 0 -246.5 -138.5t-74.5 -436.5zM358 1720l95 172l391 -272l-64 -109z" />
<glyph unicode="&#xd3;" d="M133 700q0 358 133.5 548t388.5 190t390 -186.5t135 -540.5q0 -738 -521 -738q-526 0 -526 727zM336 709q0 -302 74.5 -444t246.5 -142t246 138t74 437q0 302 -74.5 444t-245.5 142q-172 0 -246.5 -138.5t-74.5 -436.5zM467 1620l391 272l94 -172l-422 -209z" />
<glyph unicode="&#xd4;" d="M133 700q0 358 133.5 548t388.5 190t390 -186.5t135 -540.5q0 -738 -521 -738q-526 0 -526 727zM336 709q0 -302 74.5 -444t246.5 -142t246 138t74 437q0 302 -74.5 444t-245.5 142q-172 0 -246.5 -138.5t-74.5 -436.5zM342 1616l254 260h119l252 -260l-68 -92l-244 172 l-245 -172z" />
<glyph unicode="&#xd5;" d="M133 700q0 358 133.5 548t388.5 190t390 -186.5t135 -540.5q0 -738 -521 -738q-526 0 -526 727zM334 1610q81 176 211 176q46 0 88.5 -19.5t80.5 -39t72 -19.5q22 0 42 12.5t31 25.5t34 44l92 -68q-81 -176 -211 -176q-46 0 -89 19.5t-81 39t-72 19.5q-22 0 -42 -13 t-30 -25t-34 -44zM336 709q0 -302 74.5 -444t246.5 -142t246 138t74 437q0 302 -74.5 444t-245.5 142q-172 0 -246.5 -138.5t-74.5 -436.5z" />
<glyph unicode="&#xd6;" d="M133 700q0 358 133.5 548t388.5 190t390 -186.5t135 -540.5q0 -738 -521 -738q-526 0 -526 727zM330 1640q0 50 36.5 86.5t84.5 36.5t84 -36.5t36 -86.5t-36 -86t-84 -36t-84.5 36t-36.5 86zM336 709q0 -302 74.5 -444t246.5 -142t246 138t74 437q0 302 -74.5 444 t-245.5 142q-172 0 -246.5 -138.5t-74.5 -436.5zM737 1640q0 50 36.5 86.5t84.5 36.5t84.5 -36.5t36.5 -86.5t-36.5 -86t-84.5 -36t-84.5 36t-36.5 86z" />
<glyph unicode="&#xd7;" horiz-adv-x="1085" d="M168 879l102 106l273 -280l262 280l106 -111l-264 -278l268 -285l-102 -106l-270 282l-264 -284l-107 112l266 281z" />
<glyph unicode="&#xd8;" d="M133 700q0 358 133.5 548t388.5 190q168 0 287 -84l119 211l127 -78l-137 -246q129 -189 129 -530q0 -738 -521 -738q-162 0 -274 68l-121 -217l-127 78l135 241q-139 179 -139 557zM336 709q0 -243 43 -371l481 866q-74 80 -203 80q-172 0 -246.5 -138.5t-74.5 -436.5z M467 188q68 -65 190 -65q172 0 246 138t74 437q0 214 -37 344z" />
<glyph unicode="&#xd9;" horiz-adv-x="1298" d="M193 406v1005h188v-973q0 -164 44.5 -232.5t172.5 -68.5q173 0 309 131v1143h189v-1411h-140l-32 131q-158 -158 -346 -158q-78 0 -144 22.5t-121.5 70.5t-87.5 135t-32 205zM350 1720l94 172l392 -272l-64 -109z" />
<glyph unicode="&#xda;" horiz-adv-x="1298" d="M193 406v1005h188v-973q0 -164 44.5 -232.5t172.5 -68.5q173 0 309 131v1143h189v-1411h-140l-32 131q-158 -158 -346 -158q-78 0 -144 22.5t-121.5 70.5t-87.5 135t-32 205zM459 1620l391 272l94 -172l-422 -209z" />
<glyph unicode="&#xdb;" horiz-adv-x="1298" d="M193 406v1005h188v-973q0 -164 44.5 -232.5t172.5 -68.5q173 0 309 131v1143h189v-1411h-140l-32 131q-158 -158 -346 -158q-78 0 -144 22.5t-121.5 70.5t-87.5 135t-32 205zM334 1616l254 260h119l251 -260l-67 -92l-244 172l-246 -172z" />
<glyph unicode="&#xdc;" horiz-adv-x="1298" d="M193 406v1005h188v-973q0 -164 44.5 -232.5t172.5 -68.5q173 0 309 131v1143h189v-1411h-140l-32 131q-158 -158 -346 -158q-78 0 -144 22.5t-121.5 70.5t-87.5 135t-32 205zM322 1640q0 50 36 86.5t84 36.5t84.5 -36.5t36.5 -86.5t-36.5 -86t-84.5 -36t-84 36t-36 86z M729 1640q0 50 36.5 86.5t84.5 36.5t84.5 -36.5t36.5 -86.5t-36.5 -86t-84.5 -36t-84.5 36t-36.5 86z" />
<glyph unicode="&#xdd;" horiz-adv-x="1097" d="M55 1411h219l197 -457q55 -128 82 -221q5 13 31 92.5t47 126.5l205 459h204l-399 -846v-565h-188v569zM420 1620l391 272l94 -172l-422 -209z" />
<glyph unicode="&#xde;" horiz-adv-x="1150" d="M199 0v1411h188v-225h225q213 0 321.5 -108.5t108.5 -313.5q0 -211 -100.5 -323.5t-306.5 -112.5h-248v-328h-188zM387 487h223q122 0 178 60.5t56 206.5q0 149 -55.5 209.5t-186.5 60.5h-215v-537z" />
<glyph unicode="&#xdf;" horiz-adv-x="1126" d="M182 0v1059q0 195 97 299t268 104q167 0 259.5 -77t92.5 -218q0 -54 -15.5 -99.5t-39 -73.5t-51 -53t-51 -40.5t-39 -34t-15.5 -35.5q0 -24 18 -42t82 -65q7 -5 11 -8l10 -7.5t12 -8.5q43 -31 72.5 -58.5t64.5 -72t53.5 -103t18.5 -128.5q0 -172 -104 -263t-267 -91 q-103 0 -190 30l31 129q66 -20 137 -20q97 0 151 55t54 160q0 42 -11.5 79.5t-24.5 60.5t-43 52t-44.5 40t-52.5 38q-75 54 -110.5 98.5t-35.5 112.5q0 41 15 74.5t38 55.5t49.5 46t49.5 46t38 55.5t15 74.5q0 83 -42.5 118.5t-135.5 35.5q-103 0 -146 -70.5t-43 -216.5 v-1038h-176z" />
<glyph unicode="&#xe0;" horiz-adv-x="1015" d="M109 293q0 177 112 259.5t361 82.5h84v80q0 49 -4.5 78.5t-19.5 56t-45 38t-79 11.5q-126 0 -299 -94l-67 135q91 53 181.5 83t203.5 30q154 0 229.5 -74t75.5 -236v-743h-137l-29 102q-115 -129 -258 -129q-149 0 -229 81.5t-80 238.5zM229 1364l95 172l391 -272 l-64 -109zM297 293q0 -99 33.5 -139.5t109.5 -40.5q116 0 226 123v272h-62q-77 0 -131 -8.5t-88.5 -24t-54 -42.5t-26.5 -59.5t-7 -80.5z" />
<glyph unicode="&#xe1;" horiz-adv-x="1015" d="M109 293q0 177 112 259.5t361 82.5h84v80q0 49 -4.5 78.5t-19.5 56t-45 38t-79 11.5q-126 0 -299 -94l-67 135q91 53 181.5 83t203.5 30q154 0 229.5 -74t75.5 -236v-743h-137l-29 102q-115 -129 -258 -129q-149 0 -229 81.5t-80 238.5zM276 1264l392 272l94 -172 l-422 -209zM297 293q0 -99 33.5 -139.5t109.5 -40.5q116 0 226 123v272h-62q-77 0 -131 -8.5t-88.5 -24t-54 -42.5t-26.5 -59.5t-7 -80.5z" />
<glyph unicode="&#xe2;" horiz-adv-x="1015" d="M109 293q0 177 112 259.5t361 82.5h84v80q0 49 -4.5 78.5t-19.5 56t-45 38t-79 11.5q-126 0 -299 -94l-67 135q91 53 181.5 83t203.5 30q154 0 229.5 -74t75.5 -236v-743h-137l-29 102q-115 -129 -258 -129q-149 0 -229 81.5t-80 238.5zM199 1260l254 260h118l252 -260 l-67 -93l-244 172l-246 -172zM297 293q0 -99 33.5 -139.5t109.5 -40.5q116 0 226 123v272h-62q-77 0 -131 -8.5t-88.5 -24t-54 -42.5t-26.5 -59.5t-7 -80.5z" />
<glyph unicode="&#xe3;" horiz-adv-x="1015" d="M109 293q0 177 112 259.5t361 82.5h84v80q0 49 -4.5 78.5t-19.5 56t-45 38t-79 11.5q-126 0 -299 -94l-67 135q91 53 181.5 83t203.5 30q154 0 229.5 -74t75.5 -236v-743h-137l-29 102q-115 -129 -258 -129q-149 0 -229 81.5t-80 238.5zM174 1253q82 177 211 177 q46 0 89 -19.5t81 -39t72 -19.5q22 0 42 13t30 25t34 44l92 -68q-81 -176 -211 -176q-46 0 -88.5 19.5t-80.5 39t-72 19.5q-22 0 -42 -12.5t-31 -25.5t-34 -44zM297 293q0 -99 33.5 -139.5t109.5 -40.5q116 0 226 123v272h-62q-77 0 -131 -8.5t-88.5 -24t-54 -42.5 t-26.5 -59.5t-7 -80.5z" />
<glyph unicode="&#xe4;" horiz-adv-x="1015" d="M109 293q0 177 112 259.5t361 82.5h84v80q0 49 -4.5 78.5t-19.5 56t-45 38t-79 11.5q-126 0 -299 -94l-67 135q91 53 181.5 83t203.5 30q154 0 229.5 -74t75.5 -236v-743h-137l-29 102q-115 -129 -258 -129q-149 0 -229 81.5t-80 238.5zM184 1284q0 50 36.5 86.5 t84.5 36.5t84.5 -36.5t36.5 -86.5t-36.5 -86.5t-84.5 -36.5t-84.5 36.5t-36.5 86.5zM297 293q0 -99 33.5 -139.5t109.5 -40.5q116 0 226 123v272h-62q-77 0 -131 -8.5t-88.5 -24t-54 -42.5t-26.5 -59.5t-7 -80.5zM592 1284q0 50 36.5 86.5t84.5 36.5t84.5 -36.5t36.5 -86.5 t-36.5 -86.5t-84.5 -36.5t-84.5 36.5t-36.5 86.5z" />
<glyph unicode="&#xe5;" horiz-adv-x="1015" d="M109 293q0 177 112 259.5t361 82.5h84v80q0 49 -4.5 78.5t-19.5 56t-45 38t-79 11.5q-126 0 -299 -94l-67 135q91 53 181.5 83t203.5 30q154 0 229.5 -74t75.5 -236v-743h-137l-29 102q-115 -129 -258 -129q-149 0 -229 81.5t-80 238.5zM297 293q0 -99 33.5 -139.5 t109.5 -40.5q116 0 226 123v272h-62q-77 0 -131 -8.5t-88.5 -24t-54 -42.5t-26.5 -59.5t-7 -80.5zM313 1368q0 90 56.5 152.5t148.5 62.5t148.5 -62.5t56.5 -152.5t-56.5 -152.5t-148.5 -62.5t-148.5 62.5t-56.5 152.5zM430 1368q0 -115 88 -115t88 115t-88 115t-88 -115z " />
<glyph unicode="&#xe6;" horiz-adv-x="1546" d="M109 287q0 171 112 252.5t361 81.5h84v94q0 49 -4.5 78.5t-19.5 56t-45 38t-79 11.5q-126 0 -299 -94l-67 135q91 53 181.5 83t203.5 30q182 0 241 -129q97 129 277 129q190 0 286.5 -120t96.5 -390v-56h-596q1 -148 24 -227t72 -111t139 -32q77 0 133 23t115 69l90 -117 q-77 -63 -154.5 -91t-187.5 -28q-119 0 -199 43.5t-131 135.5q-67 -87 -151 -133t-174 -46q-148 0 -228.5 81.5t-80.5 232.5zM297 287q0 -95 33.5 -134.5t109.5 -39.5q116 0 226 123v251h-62q-128 0 -195 -21.5t-89.5 -62t-22.5 -116.5zM844 621h407q0 164 -44.5 228 t-155.5 64q-46 0 -79.5 -13t-61 -45t-44 -90t-22.5 -144z" />
<glyph unicode="&#xe7;" horiz-adv-x="905" d="M111 514q0 283 105 411t304 128q90 0 158 -27t133 -90l-102 -123q-48 48 -90.5 69t-104.5 21t-100 -15.5t-65.5 -58.5t-38.5 -118.5t-11 -196.5q0 -157 24 -242t71.5 -117t133.5 -32q57 0 97 22.5t92 71.5l108 -117q-115 -124 -297 -127l-28 -77q149 -11 149 -166 q0 -74 -48.5 -121t-154.5 -47q-92 0 -161 49l45 94q67 -31 114 -31q41 0 58.5 16t17.5 50q0 67 -74 67q-38 0 -88 -10l62 187q-309 60 -309 530z" />
<glyph unicode="&#xe8;" horiz-adv-x="1007" d="M111 514q0 539 401 539q190 0 286.5 -120t96.5 -390v-70h-596q2 -141 26.5 -216.5t72.5 -104.5t137 -29q75 0 127 23.5t114 72.5l96 -127q-77 -63 -154.5 -91t-187.5 -28q-207 0 -313 129.5t-106 411.5zM260 1364l94 172l391 -272l-63 -109zM301 606h408q0 175 -44.5 241 t-156.5 66q-63 0 -104 -24.5t-68.5 -94t-34.5 -188.5z" />
<glyph unicode="&#xe9;" horiz-adv-x="1007" d="M111 514q0 539 401 539q190 0 286.5 -120t96.5 -390v-70h-596q2 -141 26.5 -216.5t72.5 -104.5t137 -29q75 0 127 23.5t114 72.5l96 -127q-77 -63 -154.5 -91t-187.5 -28q-207 0 -313 129.5t-106 411.5zM291 1264l391 272l94 -172l-422 -209zM301 606h408 q0 175 -44.5 241t-156.5 66q-63 0 -104 -24.5t-68.5 -94t-34.5 -188.5z" />
<glyph unicode="&#xea;" horiz-adv-x="1007" d="M111 514q0 539 401 539q190 0 286.5 -120t96.5 -390v-70h-596q2 -141 26.5 -216.5t72.5 -104.5t137 -29q75 0 127 23.5t114 72.5l96 -127q-77 -63 -154.5 -91t-187.5 -28q-207 0 -313 129.5t-106 411.5zM199 1260l254 260h118l252 -260l-67 -93l-244 172l-246 -172z M301 606h408q0 175 -44.5 241t-156.5 66q-63 0 -104 -24.5t-68.5 -94t-34.5 -188.5z" />
<glyph unicode="&#xeb;" horiz-adv-x="1007" d="M111 514q0 539 401 539q190 0 286.5 -120t96.5 -390v-70h-596q2 -141 26.5 -216.5t72.5 -104.5t137 -29q75 0 127 23.5t114 72.5l96 -127q-77 -63 -154.5 -91t-187.5 -28q-207 0 -313 129.5t-106 411.5zM186 1284q0 50 36.5 86.5t84.5 36.5t84.5 -36.5t36.5 -86.5 t-36.5 -86.5t-84.5 -36.5t-84.5 36.5t-36.5 86.5zM301 606h408q0 175 -44.5 241t-156.5 66q-63 0 -104 -24.5t-68.5 -94t-34.5 -188.5zM594 1284q0 50 36.5 86.5t84.5 36.5t84.5 -36.5t36.5 -86.5t-36.5 -86.5t-84.5 -36.5t-84.5 36.5t-36.5 86.5z" />
<glyph unicode="&#xec;" horiz-adv-x="602" d="M-43 1364l94 172l391 -272l-63 -109zM86 913v113h328v-1026h-176v889z" />
<glyph unicode="&#xed;" horiz-adv-x="602" d="M86 913v113h328v-1026h-176v889zM168 1264l391 272l94 -172l-422 -209z" />
<glyph unicode="&#xee;" horiz-adv-x="602" d="M-27 1260l254 260h119l252 -260l-68 -93l-243 172l-246 -172zM86 913v113h328v-1026h-176v889z" />
<glyph unicode="&#xef;" horiz-adv-x="602" d="M-31 1284q0 50 36.5 86.5t84.5 36.5t84.5 -36.5t36.5 -86.5t-36.5 -86.5t-84.5 -36.5t-84.5 36.5t-36.5 86.5zM86 913v113h328v-1026h-176v889zM377 1284q0 50 36.5 86.5t84.5 36.5t84 -36.5t36 -86.5t-36 -86.5t-84 -36.5t-84.5 36.5t-36.5 86.5z" />
<glyph unicode="&#xf0;" horiz-adv-x="1056" d="M109 516q0 268 104.5 392t282.5 124q134 0 215 -84q-56 143 -164 248l-228 -102l-57 112l176 80q-50 38 -170 111l62 108q155 -78 254 -151l215 96l57 -113l-166 -75q128 -128 192 -298t64 -401q0 -590 -418 -590q-197 0 -308 132.5t-111 410.5zM297 516 q0 -155 26 -244.5t75 -124t130 -34.5q82 0 130.5 34t75 123t26.5 244q0 210 -56 294.5t-178 84.5q-87 0 -134.5 -30.5t-71 -112.5t-23.5 -234z" />
<glyph unicode="&#xf1;" horiz-adv-x="1079" d="M180 0v1026h137l27 -127q154 154 313 154q115 0 181.5 -62t66.5 -188v-803h-176v748q0 86 -27.5 117.5t-97.5 31.5q-110 0 -248 -123v-774h-176zM217 1253q82 177 211 177q46 0 89 -19.5t81 -39t72 -19.5q22 0 42 13t30 25t34 44l92 -68q-81 -176 -211 -176 q-46 0 -88.5 19.5t-80.5 39t-72 19.5q-22 0 -42 -12.5t-31 -25.5t-34 -44z" />
<glyph unicode="&#xf2;" horiz-adv-x="1060" d="M111 514q0 278 109 408.5t306 130.5q198 0 310 -131t112 -408q0 -278 -110.5 -409.5t-307.5 -131.5t-308 131.5t-111 409.5zM231 1364l95 172l391 -272l-64 -109zM299 514q0 -155 26 -244t74.5 -123t130.5 -34t130 33.5t74 122t26 243.5q0 156 -26.5 245t-75 122.5 t-130.5 33.5t-130 -33t-73.5 -121.5t-25.5 -244.5z" />
<glyph unicode="&#xf3;" horiz-adv-x="1060" d="M111 514q0 278 109 408.5t306 130.5q198 0 310 -131t112 -408q0 -278 -110.5 -409.5t-307.5 -131.5t-308 131.5t-111 409.5zM299 514q0 -155 26 -244t74.5 -123t130.5 -34t130 33.5t74 122t26 243.5q0 156 -26.5 245t-75 122.5t-130.5 33.5t-130 -33t-73.5 -121.5 t-25.5 -244.5zM340 1264l391 272l94 -172l-422 -209z" />
<glyph unicode="&#xf4;" horiz-adv-x="1060" d="M111 514q0 278 109 408.5t306 130.5q198 0 310 -131t112 -408q0 -278 -110.5 -409.5t-307.5 -131.5t-308 131.5t-111 409.5zM215 1260l254 260h119l252 -260l-68 -93l-244 172l-245 -172zM299 514q0 -155 26 -244t74.5 -123t130.5 -34t130 33.5t74 122t26 243.5 q0 156 -26.5 245t-75 122.5t-130.5 33.5t-130 -33t-73.5 -121.5t-25.5 -244.5z" />
<glyph unicode="&#xf5;" horiz-adv-x="1060" d="M111 514q0 278 109 408.5t306 130.5q198 0 310 -131t112 -408q0 -278 -110.5 -409.5t-307.5 -131.5t-308 131.5t-111 409.5zM207 1253q82 177 211 177q46 0 88.5 -19.5t80.5 -39t72 -19.5q22 0 42 12.5t31 25.5t34 44l92 -68q-81 -176 -211 -176q-46 0 -88.5 19.5 t-80.5 39t-72 19.5q-22 0 -42 -12.5t-31 -25.5t-34 -44zM299 514q0 -155 26 -244t74.5 -123t130.5 -34t130 33.5t74 122t26 243.5q0 156 -26.5 245t-75 122.5t-130.5 33.5t-130 -33t-73.5 -121.5t-25.5 -244.5z" />
<glyph unicode="&#xf6;" horiz-adv-x="1060" d="M111 514q0 278 109 408.5t306 130.5q198 0 310 -131t112 -408q0 -278 -110.5 -409.5t-307.5 -131.5t-308 131.5t-111 409.5zM203 1284q0 50 36.5 86.5t84.5 36.5t84 -36.5t36 -86.5t-36 -86.5t-84 -36.5t-84.5 36.5t-36.5 86.5zM299 514q0 -155 26 -244t74.5 -123 t130.5 -34t130 33.5t74 122t26 243.5q0 156 -26.5 245t-75 122.5t-130.5 33.5t-130 -33t-73.5 -121.5t-25.5 -244.5zM610 1284q0 50 36.5 86.5t84.5 36.5t84.5 -36.5t36.5 -86.5t-36.5 -86.5t-84.5 -36.5t-84.5 36.5t-36.5 86.5z" />
<glyph unicode="&#xf7;" horiz-adv-x="1128" d="M152 522v154h823v-154h-823zM430 225q0 57 38.5 96t94.5 39q57 0 95 -39t38 -96t-38 -96t-95 -39q-56 0 -94.5 39t-38.5 96zM430 973q0 57 38.5 96t94.5 39q57 0 95 -39t38 -96t-38 -96t-95 -39q-56 0 -94.5 39t-38.5 96z" />
<glyph unicode="&#xf8;" horiz-adv-x="1060" d="M111 514q0 278 109 408.5t306 130.5q120 0 211 -49l99 176l98 -58l-107 -190q121 -137 121 -418q0 -278 -110.5 -409.5t-307.5 -131.5q-121 0 -213 50l-94 -170l-98 57l104 186q-118 137 -118 418zM299 514q0 -154 25 -246l340 606q-47 39 -136 39q-82 0 -130 -33 t-73.5 -121.5t-25.5 -244.5zM391 154q52 -41 139 -41q82 0 130 33.5t74 122t26 243.5q0 162 -27 250z" />
<glyph unicode="&#xf9;" horiz-adv-x="1085" d="M172 236v790h176v-735q0 -89 31.5 -125.5t101.5 -36.5q109 0 246 123v774h176v-1026h-137l-27 127q-151 -154 -305 -154q-116 0 -189 67.5t-73 195.5zM244 1364l94 172l391 -272l-63 -109z" />
<glyph unicode="&#xfa;" horiz-adv-x="1085" d="M172 236v790h176v-735q0 -89 31.5 -125.5t101.5 -36.5q109 0 246 123v774h176v-1026h-137l-27 127q-151 -154 -305 -154q-116 0 -189 67.5t-73 195.5zM352 1264l391 272l95 -172l-422 -209z" />
<glyph unicode="&#xfb;" horiz-adv-x="1085" d="M172 236v790h176v-735q0 -89 31.5 -125.5t101.5 -36.5q109 0 246 123v774h176v-1026h-137l-27 127q-151 -154 -305 -154q-116 0 -189 67.5t-73 195.5zM227 1260l254 260h119l252 -260l-68 -93l-243 172l-246 -172z" />
<glyph unicode="&#xfc;" horiz-adv-x="1085" d="M172 236v790h176v-735q0 -89 31.5 -125.5t101.5 -36.5q109 0 246 123v774h176v-1026h-137l-27 127q-151 -154 -305 -154q-116 0 -189 67.5t-73 195.5zM215 1284q0 50 36.5 86.5t84.5 36.5t84.5 -36.5t36.5 -86.5t-36.5 -86.5t-84.5 -36.5t-84.5 36.5t-36.5 86.5z M623 1284q0 50 36 86.5t84 36.5t84.5 -36.5t36.5 -86.5t-36.5 -86.5t-84.5 -36.5t-84 36.5t-36 86.5z" />
<glyph unicode="&#xfd;" horiz-adv-x="978" d="M61 1026h193l172 -604q29 -105 61 -281h2q36 191 64 281l182 604h183l-340 -1059q-30 -91 -60.5 -153t-61 -102.5t-75 -66.5t-88 -40.5t-113.5 -28.5l-39 143q128 33 184.5 87.5t98.5 193.5h-43zM330 1264l391 272l94 -172l-422 -209z" />
<glyph unicode="&#xfe;" horiz-adv-x="1097" d="M180 -412v1895h176v-563q126 133 275 133q62 0 112.5 -14.5t95.5 -51.5t75.5 -96.5t48.5 -153.5t18 -217q0 -286 -85.5 -416.5t-266.5 -130.5q-153 0 -273 115v-500h-176zM356 225q104 -100 228 -100q47 0 78 8t58 31.5t42 66t23 110.5t8 167q0 164 -20.5 249.5 t-59.5 114.5t-113 29q-69 0 -125 -30.5t-119 -90.5v-555z" />
<glyph unicode="&#xff;" horiz-adv-x="978" d="M61 1026h193l172 -604q29 -105 61 -281h2q36 191 64 281l182 604h183l-340 -1059q-30 -91 -60.5 -153t-61 -102.5t-75 -66.5t-88 -40.5t-113.5 -28.5l-39 143q128 33 184.5 87.5t98.5 193.5h-43zM172 1284q0 50 36.5 86.5t84.5 36.5t84.5 -36.5t36.5 -86.5t-36.5 -86.5 t-84.5 -36.5t-84.5 36.5t-36.5 86.5zM580 1284q0 50 36 86.5t84 36.5t84.5 -36.5t36.5 -86.5t-36.5 -86.5t-84.5 -36.5t-84 36.5t-36 86.5z" />
<glyph unicode="&#x152;" horiz-adv-x="1734" d="M133 715q0 159 28.5 281t77 199.5t119.5 127t150 69t176 19.5h905v-162h-534v-430h432v-162h-432v-493h561v-164h-922q-97 0 -178.5 22t-153.5 74.5t-122 133.5t-78.5 204t-28.5 281zM336 711q0 -304 77 -425.5t263 -121.5h190v1085h-186q-124 0 -197.5 -49.5t-110 -167 t-36.5 -321.5z" />
<glyph unicode="&#x153;" horiz-adv-x="1652" d="M111 514q0 278 109 408.5t306 130.5q231 0 326 -195q88 195 309 195q190 0 286.5 -120t96.5 -390v-70h-596q2 -142 26 -219t73 -107t137 -30q77 0 133 23t115 69l90 -117q-77 -63 -154.5 -91t-187.5 -28q-241 0 -330 193q-91 -193 -320 -193q-197 0 -308 131.5 t-111 409.5zM299 514q0 -155 26 -244t74.5 -123t130.5 -34t130 33.5t74 122t26 243.5q0 156 -26.5 245t-75 122.5t-130.5 33.5t-130 -33t-73.5 -121.5t-25.5 -244.5zM950 606h408q0 175 -44.5 241t-156.5 66q-63 0 -104 -24.5t-68.5 -94t-34.5 -188.5z" />
<glyph unicode="&#x178;" horiz-adv-x="1097" d="M55 1411h219l197 -457q55 -128 82 -221q5 13 31 92.5t47 126.5l205 459h204l-399 -846v-565h-188v569zM221 1640q0 50 36.5 86.5t84.5 36.5t84.5 -36.5t36.5 -86.5t-36.5 -86t-84.5 -36t-84.5 36t-36.5 86zM629 1640q0 50 36.5 86.5t84.5 36.5t84 -36.5t36 -86.5t-36 -86 t-84 -36t-84.5 36t-36.5 86z" />
<glyph unicode="&#x2c6;" horiz-adv-x="1116" d="M244 1260l254 260h118l252 -260l-67 -93l-244 172l-246 -172z" />
<glyph unicode="&#x2dc;" horiz-adv-x="1116" d="M236 1253q82 177 210 177q46 0 89 -19.5t81 -39t72 -19.5q22 0 42 12.5t31 25.5t34 44l92 -68q-81 -176 -211 -176q-46 0 -89 19.5t-81 39t-72 19.5q-22 0 -42 -13t-30 -25t-34 -44z" />
<glyph unicode="&#x2000;" horiz-adv-x="957" />
<glyph unicode="&#x2001;" horiz-adv-x="1915" />
<glyph unicode="&#x2002;" horiz-adv-x="957" />
<glyph unicode="&#x2003;" horiz-adv-x="1915" />
<glyph unicode="&#x2004;" horiz-adv-x="638" />
<glyph unicode="&#x2005;" horiz-adv-x="478" />
<glyph unicode="&#x2006;" horiz-adv-x="319" />
<glyph unicode="&#x2007;" horiz-adv-x="319" />
<glyph unicode="&#x2008;" horiz-adv-x="239" />
<glyph unicode="&#x2009;" horiz-adv-x="383" />
<glyph unicode="&#x200a;" horiz-adv-x="106" />
<glyph unicode="&#x2010;" horiz-adv-x="616" d="M109 461v186h395v-186h-395z" />
<glyph unicode="&#x2011;" horiz-adv-x="616" d="M109 461v186h395v-186h-395z" />
<glyph unicode="&#x2012;" horiz-adv-x="616" d="M109 461v186h395v-186h-395z" />
<glyph unicode="&#x2013;" horiz-adv-x="1161" d="M111 492v153h936v-153h-936z" />
<glyph unicode="&#x2014;" horiz-adv-x="1597" d="M111 492v153h1372v-153h-1372z" />
<glyph unicode="&#x2018;" horiz-adv-x="530" d="M129 1092q0 266 242 338l35 -95q-123 -54 -123 -155q41 -4 80.5 -39.5t39.5 -98.5q0 -57 -37.5 -95t-89.5 -38q-65 0 -106 50t-41 133z" />
<glyph unicode="&#x2019;" horiz-adv-x="530" d="M125 1004q123 54 123 155q-42 4 -81.5 39t-39.5 98q0 57 37.5 95.5t89.5 38.5q65 0 106 -50t41 -133q0 -266 -241 -338z" />
<glyph unicode="&#x201a;" horiz-adv-x="530" d="M125 -162q123 54 123 156q-42 4 -81.5 39t-39.5 98q0 57 37.5 95t89.5 38q65 0 106 -50t41 -132q0 -266 -241 -338z" />
<glyph unicode="&#x201c;" horiz-adv-x="933" d="M129 1092q0 266 242 338l35 -95q-123 -54 -123 -155q41 -4 80.5 -39.5t39.5 -98.5q0 -57 -37.5 -95t-89.5 -38q-65 0 -106 50t-41 133zM532 1092q0 266 242 338l35 -95q-123 -54 -123 -155q42 -4 81.5 -39.5t39.5 -98.5q0 -57 -37.5 -95t-89.5 -38q-65 0 -106.5 50.5 t-41.5 132.5z" />
<glyph unicode="&#x201d;" horiz-adv-x="933" d="M125 1004q123 54 123 155q-42 4 -81.5 39t-39.5 98q0 57 37.5 95.5t89.5 38.5q65 0 106 -50t41 -133q0 -266 -241 -338zM528 1004q123 54 123 155q-42 4 -81.5 39t-39.5 98q0 57 37.5 95.5t89.5 38.5q65 0 106.5 -50.5t41.5 -132.5q0 -266 -242 -338z" />
<glyph unicode="&#x201e;" horiz-adv-x="933" d="M125 -162q123 54 123 156q-42 4 -81.5 39t-39.5 98q0 57 37.5 95t89.5 38q65 0 106 -50t41 -132q0 -266 -241 -338zM528 -162q123 54 123 156q-42 4 -81.5 39t-39.5 98q0 57 37.5 95t89.5 38q65 0 106.5 -50t41.5 -132q0 -266 -242 -338z" />
<glyph unicode="&#x2022;" horiz-adv-x="739" d="M139 686q0 104 64.5 176t165.5 72t165 -72t64 -176t-64 -176t-165 -72t-165.5 72t-64.5 176z" />
<glyph unicode="&#x2026;" horiz-adv-x="1480" d="M145 123q0 60 40.5 100.5t99.5 40.5q60 0 99.5 -40.5t39.5 -100.5t-39.5 -100.5t-99.5 -40.5q-59 0 -99.5 40.5t-40.5 100.5zM600 123q0 60 40 100.5t99 40.5q60 0 100 -40.5t40 -100.5t-40 -100.5t-100 -40.5q-59 0 -99 40.5t-40 100.5zM1055 123q0 60 40 100.5t99 40.5 q60 0 99.5 -40.5t39.5 -100.5t-39.5 -100.5t-99.5 -40.5q-59 0 -99 40.5t-40 100.5z" />
<glyph unicode="&#x202f;" horiz-adv-x="383" />
<glyph unicode="&#x2039;" horiz-adv-x="653" d="M115 508l284 455l133 -91l-225 -364l223 -367l-131 -86z" />
<glyph unicode="&#x203a;" horiz-adv-x="653" d="M119 145l225 365l-223 367l131 86l285 -453l-285 -455z" />
<glyph unicode="&#x205f;" horiz-adv-x="478" />
<glyph unicode="&#x20ac;" horiz-adv-x="1249" d="M102 436v135h193q-2 25 -2 76q0 65 2 96h-193v136h209q81 450 500 450q205 0 326 -102l-84 -125q-105 78 -242 78q-144 0 -216.5 -71.5t-96.5 -229.5h428v-136h-441v-172h441v-135h-428q22 -164 95.5 -238.5t223.5 -74.5q141 0 256 92l84 -125q-151 -117 -346 -117 q-429 0 -504 463h-205z" />
<glyph unicode="&#x2122;" horiz-adv-x="1605" d="M104 1284v127h543v-127h-198v-651h-146v651h-199zM770 633v778h207l98 -328q14 -44 22.5 -88.5t10.5 -66.5l2 -23h4q4 76 35 178l96 328h203v-778h-139v364q0 61 3 131.5t6 111.5l3 40h-4q-19 -129 -62 -266l-79 -258h-134l-79 258q-18 58 -34 124.5t-23 103.5l-7 38h-4 q14 -146 14 -283v-364h-139z" />
<glyph unicode="&#xe000;" horiz-adv-x="1024" d="M0 0v1024h1024v-1024h-1024z" />
<glyph unicode="&#xfb01;" horiz-adv-x="1083" d="M72 883v143h112v125q0 171 90.5 257.5t247.5 86.5q92 0 150 -15t119 -50l-66 -146q-86 47 -178 47q-103 0 -145 -39t-42 -139v-127h549v-1026h-176v883h-373v-883h-176v883h-112z" />
<glyph unicode="&#xfb02;" horiz-adv-x="1110" d="M72 883v143h112v125q0 169 103.5 256.5t269.5 87.5q100 0 182 -12h170v-1286q0 -38 17.5 -55t54.5 -17l41 4l25 -127q-57 -22 -127 -22q-99 0 -143 57.5t-44 191.5v1096q-66 16 -151 16q-112 0 -167 -44.5t-55 -143.5v-127h213v-143h-213v-883h-176v883h-112z" />
<glyph unicode="&#xfb03;" horiz-adv-x="1632" d="M72 883v143h112v143q0 85 21 146.5t59 95.5t82 49t98 15q118 0 197 -48l-59 -137q-54 29 -113 29q-109 0 -109 -148v-145h373v125q0 171 90.5 257.5t247.5 86.5q92 0 149.5 -15t118.5 -50l-65 -146q-86 47 -178 47q-103 0 -145 -39t-42 -139v-127h549v-1026h-176v883 h-373v-883h-176v883h-373v-883h-176v883h-112z" />
<glyph unicode="&#xfb04;" horiz-adv-x="1658" d="M72 883v143h112v143q0 85 21 146.5t59 95.5t82 49t98 15q118 0 197 -48l-59 -137q-54 29 -113 29q-109 0 -109 -148v-145h373v125q0 169 103.5 256.5t269.5 87.5q100 0 182 -12h170v-1286q0 -38 17.5 -55t54.5 -17l41 4l24 -127q-57 -22 -127 -22q-99 0 -142.5 57.5 t-43.5 191.5v1096q-66 16 -152 16q-111 0 -166 -44.5t-55 -143.5v-127h213v-143h-213v-883h-176v883h-373v-883h-176v883h-112z" />
</font>
</defs>
</svg>
